<svg viewBox="0 0 1082 976" xmlns="http://www.w3.org/2000/svg" aria-hidden="true">
  <path d="M0 0 C357.06 0 714.12 0 1082 0 C1082 322.08 1082 644.16 1082 976 C724.94 976 367.88 976 0 976 C0 653.92 0 331.84 0 0 Z" fill="none" transform="translate(0,0)"/>
  <path d="M0 0 C2.48168945 1.17651367 2.48168945 1.17651367 5.11328125 2.66796875 C6.59550171 3.50231445 6.59550171 3.50231445 8.10766602 4.35351562 C9.16526123 4.95873047 10.22285645 5.56394531 11.3125 6.1875 C12.97333618 7.12819336 12.97333618 7.12819336 14.66772461 8.08789062 C26.17138381 14.62270675 37.59093672 21.30183589 49 28 C61.68732317 35.44002074 74.40063894 42.82231684 87.21728516 50.03759766 C109.33700832 62.50179658 131.25800229 75.32415267 153.140625 88.19921875 C165.19988919 95.29197519 177.2790696 102.33667121 189.47558594 109.19213867 C199.93535393 115.07461727 210.31884342 121.0877967 220.70605469 127.09716797 C223.96021742 128.97701857 227.21776944 130.85084572 230.4765625 132.72265625 C241.55406335 139.08962321 252.58726036 145.52065881 263.5625 152.0625 C273.22530364 157.81863518 282.97203129 163.39424251 292.80371094 168.85620117 C300.8502988 173.33336938 308.81257759 177.94192238 316.75488281 182.60107422 C324.61695677 187.20805937 332.51990918 191.73945034 340.4375 196.25 C347.85826421 200.47877309 355.27406438 204.7130354 362.625 209.0625 C376.87316059 217.49237788 391.21672789 225.76513714 405.65087891 233.87231445 C414.79430108 239.00797938 423.88685736 244.22394155 432.92166138 249.54812622 C434.13080172 250.2602982 435.34081127 250.97099671 436.55172729 251.68014526 C438.24039438 252.6700495 439.92497332 253.66691762 441.609375 254.6640625 C442.57842773 255.23592285 443.54748047 255.8077832 444.54589844 256.39697266 C446.67440982 257.78732341 448.30724718 259.12034794 450 261 C443.73981042 265.31048166 437.3277256 269.18201525 430.6875 272.875 C428.6507014 274.01762283 426.6142592 275.16088113 424.578125 276.3046875 C423.51013672 276.9037793 422.44214844 277.50287109 421.34179688 278.12011719 C415.52751157 281.39086506 409.73054981 284.69183475 403.9375 288 C403.04803177 288.50787048 403.04803177 288.50787048 402.14059448 289.02600098 C392.50772228 294.53031222 382.93904164 300.13808906 373.3984375 305.80078125 C356.19021821 316.01207956 338.84346169 325.98193786 321.45680237 335.88526917 C317.68035643 338.03774652 313.90944495 340.19962658 310.1421814 342.36813354 C307.56935953 343.84905835 304.99521076 345.32766877 302.42102051 346.80621338 C301.19388608 347.51190635 299.96739111 348.21871259 298.74157715 348.92669678 C297.03905999 349.90982147 295.33403271 350.88859535 293.62890625 351.8671875 C292.66025635 352.42519043 291.69160645 352.98319336 290.69360352 353.55810547 C285.50958271 356.3331283 285.50958271 356.3331283 283 357 C280.51831055 356.1640625 280.51831055 356.1640625 277.88671875 354.625 C276.89873291 354.05918213 275.91074707 353.49336426 274.89282227 352.91040039 C273.83506592 352.27996826 272.77730957 351.64953613 271.6875 351 C270.57882568 350.35861084 269.47015137 349.71722168 268.32788086 349.05639648 C266.01186967 347.71333649 263.70064378 346.3647878 261.39550781 345.00341797 C258.24789071 343.14626051 255.09126639 341.30591486 251.9296875 339.47265625 C247.98027598 337.1796823 244.03681322 334.87695046 240.09765625 332.56640625 C233.74953424 328.84665111 227.37640351 325.17100419 221 321.5 C212.54631464 316.63154363 204.108863 311.73664863 195.6875 306.8125 C187.50480669 302.02962067 179.29687779 297.29446542 171.06201172 292.60205078 C161.91199185 287.3864537 152.79166346 282.11979306 143.671875 276.8515625 C139.28953204 274.32013906 134.9040968 271.7942203 130.515625 269.2734375 C119.48116188 262.93020805 108.49231841 256.52204781 97.5625 250 C87.44852603 243.97062792 77.22146493 238.18318459 66.90991211 232.49951172 C56.59833737 226.80649961 46.42245334 220.89874893 36.27197266 214.92431641 C32.59417056 212.76132311 28.91265215 210.60474157 25.23046875 208.44921875 C20.14900874 205.47390245 15.06772923 202.49828153 9.98828125 199.51953125 C8.43427612 198.60844604 8.43427612 198.60844604 6.84887695 197.67895508 C4.97935208 196.57717064 3.12700916 195.44558502 1.29516602 194.28222656 C-0.95633805 192.78530247 -0.95633805 192.78530247 -3.7109375 192.96484375 C-8.46478672 194.4610077 -12.39920772 196.95451917 -16.625 199.5625 C-18.60296791 200.75719529 -20.58219543 201.94980693 -22.5625 203.140625 C-23.60921875 203.77162109 -24.6559375 204.40261719 -25.734375 205.05273438 C-31.32012702 208.38347287 -36.97260787 211.59665815 -42.625 214.8125 C-43.81264506 215.48955303 -45.000226 216.16671854 -46.18774414 216.84399414 C-50.97054057 219.57077868 -55.75581799 222.29319197 -60.54248047 225.01318359 C-64.05035201 227.0066877 -67.55707993 229.0021882 -71.0625 231 C-71.6410675 231.32972809 -72.21963501 231.65945618 -72.81573486 231.99917603 C-82.55581397 237.55556171 -92.20890882 243.25227232 -101.8425293 248.99121094 C-113.41369456 255.87004245 -125.10325847 262.53479571 -136.80664062 269.18505859 C-141.41618275 271.80488552 -146.02128853 274.43244347 -150.625 277.0625 C-151.45394775 277.53606934 -152.28289551 278.00963867 -153.13696289 278.49755859 C-174.44744886 290.68259077 -195.66729567 303.02290583 -216.8515625 315.42578125 C-228.65573689 322.33147809 -240.48865012 329.18464459 -252.38598633 335.92871094 C-257.80406808 339.00390835 -263.2026326 342.10210082 -268.54162598 345.31318665 C-270.93036949 346.74957125 -273.32635294 348.17365164 -275.72247314 349.59768677 C-277.40272643 350.60417039 -279.071398 351.62990888 -280.73974609 352.65600586 C-281.75246582 353.25678955 -282.76518555 353.85757324 -283.80859375 354.4765625 C-284.69345459 355.01361816 -285.57831543 355.55067383 -286.48999023 356.10400391 C-289 357 -289 357 -291.53051758 356.31201172 C-292.34544678 355.87904785 -293.16037598 355.44608398 -294 355 C-294.76473633 354.61392578 -295.52947266 354.22785156 -296.31738281 353.83007812 C-297.10467773 353.40146484 -297.89197266 352.97285156 -298.703125 352.53125 C-299.59177246 352.0480127 -300.48041992 351.56477539 -301.39599609 351.06689453 C-302.80872803 350.29128174 -302.80872803 350.29128174 -304.25 349.5 C-305.72654053 348.69151611 -305.72654053 348.69151611 -307.23291016 347.86669922 C-315.1337349 343.51951494 -322.91603416 338.99817312 -330.66357422 334.38525391 C-335.2412883 331.67115258 -339.84029134 328.99340165 -344.4375 326.3125 C-345.44925293 325.72227051 -346.46100586 325.13204102 -347.50341797 324.52392578 C-356.07633705 319.52786753 -364.67026878 314.56864519 -373.26928711 309.61767578 C-380.69745855 305.33790153 -388.10257551 301.02015054 -395.5 296.6875 C-402.22697378 292.74920401 -408.97759186 288.87274212 -415.8125 285.125 C-423.12162347 281.10506786 -430.34196519 276.93663958 -437.53182983 272.70794678 C-438.75002913 271.99219897 -439.96943277 271.27849658 -441.19009399 270.56695557 C-442.90902372 269.56388433 -444.62257874 268.55162019 -446.3359375 267.5390625 C-447.33157715 266.95334473 -448.3272168 266.36762695 -449.35302734 265.76416016 C-451.91553933 264.05629153 -453.91388671 262.25443806 -456 260 C-444.93780558 252.99095779 -433.56807458 246.51504527 -422.21278381 239.99645996 C-418.27495137 237.7352563 -414.34296912 235.46417262 -410.4140625 233.1875 C-399.73622421 227.00288706 -389.03145427 220.87739942 -378.25 214.875 C-367.65353163 208.97184281 -357.20251129 202.84916363 -346.77880859 196.64746094 C-325.45431567 184.00489564 -303.97737753 171.59857735 -282.375 159.4375 C-273.59877973 154.49615892 -264.88279152 149.45893104 -256.19091797 144.37084961 C-247.71979531 139.41282781 -239.22027271 134.50534125 -230.71386719 129.6081543 C-224.43146466 125.98841431 -218.16365713 122.3452239 -211.90844727 118.67871094 C-201.6267365 112.65281225 -191.27563493 106.76910855 -180.86523438 100.96850586 C-172.93594747 96.54348034 -165.09637832 91.98705556 -157.28808594 87.35302734 C-152.72390247 84.65406183 -148.14263462 81.98427591 -143.5625 79.3125 C-142.55050537 78.72210937 -141.53851074 78.13171875 -140.49584961 77.5234375 C-131.92311003 72.52765286 -123.32947766 67.5684992 -114.73071289 62.61767578 C-107.30254062 58.33790106 -99.89748749 54.02004382 -92.5 49.6875 C-85.70846826 45.71261127 -78.89473872 41.79312322 -72 38 C-61.94531981 32.46752594 -52.05723698 26.65463677 -42.15820312 20.84960938 C-38.9363328 18.96271315 -35.71097138 17.08192708 -32.484375 15.203125 C-30.88650146 14.27258301 -30.88650146 14.27258301 -29.25634766 13.32324219 C-27.23536147 12.14651329 -25.21421433 10.97006076 -23.19287109 9.79394531 C-21.80189209 8.98328613 -21.80189209 8.98328613 -20.3828125 8.15625 C-19.48723633 7.63804687 -18.59166016 7.11984375 -17.66894531 6.5859375 C-15.84452667 5.50183363 -14.04219849 4.37990462 -12.26074219 3.2265625 C-11.38836914 2.66710937 -10.51599609 2.10765625 -9.6171875 1.53125 C-8.84745605 1.02142578 -8.07772461 0.51160156 -7.28466797 -0.01367188 C-4.34112357 -1.28444762 -3.02436731 -0.98575645 0 0 Z" fill="#BFBE5F" transform="translate(518,615)"/>
  <path d="M0 0 C0.2910205 49.81517469 0.56166985 99.63040837 0.71983337 149.44619751 C0.72335383 150.55218036 0.72335383 150.55218036 0.7269454 151.6805063 C0.77782519 167.70461246 0.82491823 183.72872766 0.8681106 199.75285634 C0.88931527 207.61111846 0.91135669 215.46937815 0.93383789 223.32763672 C0.93717225 224.50062169 0.93717225 224.50062169 0.94057396 225.69730333 C1.01301359 251.04269861 1.14070204 276.38744947 1.29705275 301.73245436 C1.45743591 327.77844885 1.5620588 353.82408675 1.59655483 379.8705667 C1.60145344 383.54966404 1.60698927 387.22876017 1.61291313 390.90785599 C1.61405932 391.63195261 1.61520551 392.35604923 1.61638644 393.10208817 C1.63647394 404.75701888 1.71531266 416.41084676 1.81614458 428.06532776 C1.91627015 439.78317804 1.95307115 451.49966579 1.92952342 463.21795683 C1.91861715 469.5676505 1.93549879 475.91410901 2.02649307 482.26322937 C2.10920765 488.07703445 2.11343875 493.88543007 2.05528121 499.69948383 C2.04809462 501.8020448 2.06970379 503.90494261 2.1230141 506.00683992 C2.48859048 521.31070777 2.48859048 521.31070777 -1.66325243 525.79739168 C-5.73440036 528.97965337 -10.1726734 531.13081944 -14.92562575 533.10413785 C-17.90599522 534.39127309 -20.58899151 536.01224241 -23.36328125 537.6953125 C-25.34584378 538.83942654 -27.32892464 539.98264283 -29.3125 541.125 C-30.40224121 541.7533374 -31.49198242 542.3816748 -32.61474609 543.02905273 C-41.36287297 548.0684772 -50.13050983 553.07329231 -58.90023804 558.07498169 C-67.98296859 563.25700343 -77.03005183 568.49751116 -86.05639648 573.77709961 C-101.99498362 583.09722186 -118.00172586 592.29949419 -134.0390625 601.44848633 C-143.15308502 606.65118943 -152.24098481 611.89896338 -161.328125 617.1484375 C-165.71046796 619.67986094 -170.0959032 622.2057797 -174.484375 624.7265625 C-185.55896839 631.0927356 -196.58976336 637.52215073 -207.5625 644.0625 C-217.2239029 649.81780076 -226.96939627 655.39225164 -236.79931641 660.85400391 C-245.9104778 665.92407524 -254.91464988 671.16573874 -263.91015625 676.4375 C-270.21570475 680.13213343 -276.54298224 683.78846027 -282.875 687.4375 C-283.94862793 688.05641113 -285.02225586 688.67532227 -286.12841797 689.31298828 C-290.55298745 691.8629532 -294.97827211 694.41167469 -299.40380859 696.95996094 C-302.79038679 698.91020454 -306.17657537 700.86112194 -309.5625 702.8125 C-311.20472534 703.75875244 -311.20472534 703.75875244 -312.88012695 704.72412109 C-318.79481616 708.13642451 -324.68981984 711.57851063 -330.5625 715.0625 C-337.26723058 719.03741791 -344.06263202 722.83807543 -350.875 726.625 C-360.91845674 732.21276134 -370.82452965 738.00404577 -380.6940918 743.89257812 C-389.96366067 749.4130092 -399.31089924 754.78486416 -408.69018555 760.1159668 C-417.50979268 765.13295995 -426.28115144 770.2277361 -435.01245117 775.39697266 C-436.37140503 776.19627197 -436.37140503 776.19627197 -437.7578125 777.01171875 C-438.5327002 777.47022217 -439.30758789 777.92872559 -440.10595703 778.40112305 C-444.33206284 780.73592707 -448.68154841 782.84077421 -453 785 C-453 721.31 -453 657.62 -453 592 C-444.42 587.05 -435.84 582.1 -427 577 C-418.80478655 572.15743044 -418.80478655 572.15743044 -410.61328125 567.30859375 C-394.7879329 557.95942167 -378.8175416 548.86983776 -362.76464844 539.91821289 C-354.87305973 535.50971749 -347.0698061 530.97080043 -339.296875 526.35742188 C-334.68916687 523.63432906 -330.06194 520.94454396 -325.4375 518.25 C-323.36846972 517.04430492 -321.29945946 515.83857548 -319.23046875 514.6328125 C-318.19583496 514.02985352 -317.16120117 513.42689453 -316.09521484 512.80566406 C-313.09960723 511.05810815 -310.10608659 509.30703732 -307.11328125 507.5546875 C-295.30579084 500.64522124 -283.45567866 493.8139404 -271.57226562 487.03613281 C-254.34530544 477.20979513 -237.17579302 467.28536282 -220.0534668 457.27783203 C-211.56113725 452.31773511 -203.04437697 447.40058484 -194.51757812 442.5 C-192.53114931 441.35680571 -190.56183784 440.18326129 -188.61235714 438.97813988 C-186.04107027 437.46675975 -183.55125914 436.47442754 -180.7171793 435.5561161 C-175.58868067 433.6531791 -171.31911428 431.46566342 -168 427 C-164.8839628 417.80790214 -165.75335348 407.3748203 -165.94234145 397.7710712 C-166.00366266 393.70423534 -165.9663102 389.63812959 -165.94119263 385.57107544 C-165.91111013 378.53231804 -165.94296547 371.49605157 -166.01739311 364.45765305 C-166.12490632 354.28191231 -166.13823285 344.10774448 -166.1288817 333.93151946 C-166.11625326 317.42044719 -166.17935248 300.91057285 -166.2902832 284.39990234 C-166.39785238 268.36534946 -166.46962673 252.33129227 -166.4934082 236.29638672 C-166.49488751 235.30733142 -166.49636681 234.31827612 -166.49789094 233.29924946 C-166.50509214 228.33724482 -166.51159115 223.37523956 -166.51774108 218.41323352 C-166.56963606 177.27482509 -166.74451659 136.13761567 -167 95 C-166.30617218 94.61288345 -165.61234436 94.22576691 -164.89749146 93.82691956 C-161.68362193 92.032898 -158.47071476 90.23715946 -155.2578125 88.44140625 C-154.16702393 87.8328479 -153.07623535 87.22428955 -151.95239258 86.59729004 C-144.5462928 82.45584726 -137.19313943 78.23232257 -129.875 73.9375 C-122.18489672 69.42736327 -114.46313323 64.98607222 -106.6875 60.625 C-97.17145091 55.28156727 -87.78048232 49.74416769 -78.40576172 44.15722656 C-69.67574912 38.96560379 -60.88144605 33.89630372 -52.05307007 28.87411499 C-43.7152259 24.13086296 -35.40531262 19.34311523 -27.125 14.5 C-25.17709661 13.36195645 -23.22918051 12.22393463 -21.28125 11.0859375 C-18.73541349 9.59843116 -16.18958931 8.11090817 -13.64453125 6.62207031 C-11.64057895 5.45189888 -9.63350167 4.2873397 -7.625 3.125 C-6.56539063 2.50882813 -5.50578125 1.89265625 -4.4140625 1.2578125 C-2 0 -2 0 0 0 Z" fill="#8C1627" transform="translate(493,53)"/>
  <path d="M0 0 C3.68246193 1.43701256 7.01906705 3.06277468 10.4375 5.0546875 C11.48599121 5.66304443 12.53448242 6.27140137 13.61474609 6.89819336 C15.29044678 7.87671265 15.29044678 7.87671265 17 8.875 C18.77087522 9.90383381 20.54246631 10.93142791 22.3140564 11.95903015 C23.50750221 12.65143574 24.70071862 13.34423687 25.89370728 14.03742981 C31.04073212 17.02778471 36.20403294 19.98879629 41.375 22.9375 C42.20475342 23.41123047 43.03450684 23.88496094 43.8894043 24.37304688 C47.67262008 26.53263702 51.45682276 28.69048961 55.24169922 30.84716797 C68.55063423 38.43150503 81.84003238 46.044909 95.06176758 53.78076172 C103.44110903 58.68184666 111.8479589 63.53421097 120.26098633 68.37719727 C125.69059523 71.50528813 131.1126432 74.64527164 136.51953125 77.8125 C137.57720703 78.43189453 138.63488281 79.05128906 139.72460938 79.68945312 C141.69976865 80.84756359 143.67383533 82.0075408 145.64648438 83.16992188 C152.68546183 87.29725407 159.8010664 91.12365114 167 95 C167 204.89 167 314.78 167 428 C168.98 428.66 170.96 429.32 173 430 C174.70307886 430.88281508 176.37954267 431.81864497 178.02734375 432.80078125 C178.97198486 433.35878418 179.91662598 433.91678711 180.88989258 434.49169922 C181.89560303 435.09256348 182.90131348 435.69342773 183.9375 436.3125 C186.10595162 437.59383531 188.27524275 438.87375081 190.4453125 440.15234375 C191.54262695 440.79929199 192.63994141 441.44624023 193.77050781 442.11279297 C198.5848464 444.92613114 203.44709203 447.65127617 208.3125 450.375 C217.87308514 455.7432562 227.31124579 461.30269228 236.73266602 466.91088867 C253.4673002 476.86298361 270.36119464 486.53401102 287.32397461 496.09106445 C297.82880444 502.01665779 308.26652306 508.05752751 318.70605469 514.09716797 C321.96021742 515.97701857 325.21776944 517.85084572 328.4765625 519.72265625 C339.5540652 526.08962427 350.58719312 532.52076996 361.5625 539.0625 C371.17782762 544.78916432 380.87325381 550.34337631 390.65429688 555.78149414 C402.51677942 562.38163723 414.26192324 569.18168713 426 576 C427.13147461 576.65693848 428.26294922 577.31387695 429.42871094 577.99072266 C432.7660267 579.9295126 436.10212365 581.87037574 439.4375 583.8125 C440.45658447 584.40546875 441.47566895 584.9984375 442.52563477 585.609375 C443.46463623 586.15722656 444.4036377 586.70507812 445.37109375 587.26953125 C446.19536865 587.75010986 447.01964355 588.23068848 447.86889648 588.72583008 C449.61029285 589.76699718 451.31184188 590.87456125 453 592 C453.29451924 594.58871211 453.39130853 596.938625 453.36076355 599.52957153 C453.36332682 600.31532244 453.3658901 601.10107334 453.36853105 601.91063488 C453.37349403 604.55797868 453.35693502 607.20475904 453.34057617 609.85205078 C453.33973044 611.74394721 453.34020398 613.63584462 453.34190369 615.52774048 C453.34276717 620.67630375 453.32508434 625.82465888 453.30418181 630.97317362 C453.28547377 636.3490383 453.28366922 641.72490735 453.28010559 647.10079956 C453.27076782 657.28641135 453.24613065 667.47192696 453.21605712 677.65749633 C453.18256693 689.25102082 453.16604066 700.84454981 453.15097082 712.43811059 C453.11958257 736.29212713 453.06678849 760.14605818 453 784 C449.00515653 783.28147073 446.18293327 782.17547258 442.66796875 780.11328125 C441.63478516 779.51193359 440.60160156 778.91058594 439.53710938 778.29101562 C438.43173828 777.63810547 437.32636719 776.98519531 436.1875 776.3125 C435.02057199 775.63019245 433.8532478 774.94856206 432.68554688 774.26757812 C430.28595951 772.86665869 427.88876622 771.46177647 425.49365234 770.05322266 C421.3083341 767.59197303 417.11366657 765.14684178 412.91894531 762.70166016 C410.96083613 761.5601395 409.00315884 760.41787771 407.04589844 759.27490234 C391.54807335 750.22561509 376.01364372 741.2414573 360.375 732.4375 C349.5195661 726.32442275 338.75620615 720.05985102 328.00732422 713.76171875 C306.54097843 701.18653193 285.0547099 688.64211168 263.375 676.4375 C254.59877973 671.49615892 245.88279152 666.45893104 237.19091797 661.37084961 C229.81064649 657.05128674 222.41066975 652.76718345 215 648.5 C206.69179223 643.71540374 198.40006442 638.90417596 190.125 634.0625 C181.48722969 629.01152771 172.81663733 624.02004965 164.125 619.0625 C146.18092715 608.82505212 128.25862295 598.55714587 110.5 588 C91.65355774 576.80056438 72.66434461 565.88306279 53.47924805 555.27539062 C45.3576273 550.77700697 37.3336417 546.14302839 29.35693359 541.39404297 C23.23658624 537.7740737 17.07927715 534.21638467 10.9309082 530.64428711 C9.45303833 529.78395874 9.45303833 529.78395874 7.9453125 528.90625 C7.06375488 528.39384766 6.18219727 527.88144531 5.27392578 527.35351562 C3.48377728 526.28796019 1.73339063 525.15559376 0 524 C-0.29743776 521.11954435 -0.39634307 518.45367103 -0.36914349 515.57040215 C-0.37260502 514.68338665 -0.37606655 513.79637115 -0.37963298 512.88247639 C-0.38764419 509.87696065 -0.37405691 506.87191635 -0.36076355 503.86642456 C-0.3620704 501.7033019 -0.3646946 499.5401797 -0.36853105 497.37706006 C-0.37527154 491.40709394 -0.36319454 485.43728784 -0.34819686 479.46734214 C-0.33529191 473.0392326 -0.33962202 466.61113275 -0.34190369 460.18301392 C-0.34347994 449.03727912 -0.33413827 437.89159767 -0.31719017 426.74587631 C-0.29945535 415.05287299 -0.28789562 403.3598906 -0.28463173 391.66687393 C-0.28442551 390.9405657 -0.28421929 390.21425747 -0.28400682 389.46593989 C-0.28299186 385.77757429 -0.2820877 382.08920868 -0.2812262 378.40084304 C-0.27492047 352.25793708 -0.25469588 326.1150585 -0.22631836 299.97216797 C-0.19877716 274.57047674 -0.1775204 249.168793 -0.16479492 223.76708984 C-0.16440034 222.9844676 -0.16400576 222.20184535 -0.16359923 221.39550728 C-0.15964376 213.53628502 -0.15581631 205.67706269 -0.15208265 197.81784032 C-0.14447346 181.80687402 -0.13600971 165.79590821 -0.12702942 149.78494263 C-0.12661755 149.04874101 -0.12620568 148.3125394 -0.12578133 147.55402864 C-0.09816685 98.36934079 -0.05056753 49.18466903 0 0 Z" fill="#3292ff" transform="translate(537,53)"/>
</svg>
